HIERARCHY
ROOT hip
{
  OFFSET 10.2258 85.2782 -18.4639
  CHANNELS 6 Xposition Yposition Zposition Zrotation Xrotation Yrotation
  JOINT abdomen
  {
    OFFSET 0 20.6881 -0.73152
    CHANNELS 3 Zrotation Xrotation Yrotation
    JOINT chest
    {
      OFFSET 0 11.7043 -0.48768
      CHANNELS 3 Zrotation Xrotation Yrotation
      JOINT neck
      {
        OFFSET 0 22.1894 -2.19456
        CHANNELS 3 Zrotation Xrotation Yrotation
        JOINT head
        {
          OFFSET -0.24384 7.07133 1.2192
          CHANNELS 3 Zrotation Xrotation Yrotation
          JOINT leftEye
          {
            OFFSET 4.14528 8.04674 8.04672
            CHANNELS 3 Zrotation Xrotation Yrotation
            End Site
            {
              OFFSET 1 0 0
            }
          }
          JOINT rightEye
          {
            OFFSET -3.6576 8.04674 8.04672
            CHANNELS 3 Zrotation Xrotation Yrotation
            End Site
            {
              OFFSET 1 0 0
            }
          }
        }
      }
      JOINT rCollar
      {
        OFFSET -2.68224 19.2634 -4.8768
        CHANNELS 3 Zrotation Xrotation Yrotation
        JOINT rShldr
        {
          OFFSET -8.77824 -1.95073 1.46304
          CHANNELS 3 Zrotation Xrotation Yrotation
          JOINT rForeArm
          {
            OFFSET -28.1742 -1.7115 0.48768
            CHANNELS 3 Zrotation Xrotation Yrotation
            JOINT rHand
            {
              OFFSET -22.5879 0.773209 7.07136
              CHANNELS 3 Zrotation Xrotation Yrotation
              JOINT rThumb1
              {
                OFFSET -1.2192 -0.487915 3.41376
                CHANNELS 3 Zrotation Xrotation Yrotation
                JOINT rThumb2
                {
                  OFFSET -3.37035 -0.52449 3.41376
                  CHANNELS 3 Zrotation Xrotation Yrotation
                  End Site
                  {
                    OFFSET -1.78271 -1.18214 1.43049
                  }
                }
              }
              JOINT rIndex1
              {
                OFFSET -7.75947 0.938293 5.60832
                CHANNELS 3 Zrotation Xrotation Yrotation
                JOINT rIndex2
                {
                  OFFSET -2.54057 -0.884171 1.56538
                  CHANNELS 3 Zrotation Xrotation Yrotation
                  End Site
                  {
                    OFFSET -1.62519 -0.234802 1.16502
                  }
                }
              }
              JOINT rMid1
              {
                OFFSET -8.24714 1.18213 3.41376
                CHANNELS 3 Zrotation Xrotation Yrotation
                JOINT rMid2
                {
                  OFFSET -3.10165 -0.590103 1.0647
                  CHANNELS 3 Zrotation Xrotation Yrotation
                  End Site
                  {
                    OFFSET -2.48547 -0.328903 0.83742
                  }
                }
              }
              JOINT rRing1
              {
                OFFSET -8.82822 0.546677 1.51678
                CHANNELS 3 Zrotation Xrotation Yrotation
                JOINT rRing2
                {
                  OFFSET -2.60934 -0.819778 -0.0198488
                  CHANNELS 3 Zrotation Xrotation Yrotation
                  End Site
                  {
                    OFFSET -2.33842 -0.294052 0.168128
                  }
                }
              }
              JOINT rPinky1
              {
                OFFSET -8.27202 -0.0477905 -0.4584
                CHANNELS 3 Zrotation Xrotation Yrotation
                JOINT rPinky2
                {
                  OFFSET -1.82734 -0.647385 -0.700984
                  CHANNELS 3 Zrotation Xrotation Yrotation
                  End Site
                  {
                    OFFSET -1.69225 -0.51767 -0.607171
                  }
                }
              }
            }
          }
        }
      }
      JOINT lCollar
      {
        OFFSET 2.68224 19.2634 -4.8768
        CHANNELS 3 Zrotation Xrotation Yrotation
        JOINT lShldr
        {
          OFFSET 8.77824 -1.95073 1.46304
          CHANNELS 3 Zrotation Xrotation Yrotation
          JOINT lForeArm
          {
            OFFSET 28.1742 -1.7115 0.48768
            CHANNELS 3 Zrotation Xrotation Yrotation
            JOINT lHand
            {
              OFFSET 22.5879 0.773209 7.07136
              CHANNELS 3 Zrotation Xrotation Yrotation
              JOINT lThumb1
              {
                OFFSET 1.2192 -0.487915 3.41376
                CHANNELS 3 Zrotation Xrotation Yrotation
                JOINT lThumb2
                {
                  OFFSET 3.37035 -0.52449 3.41376
                  CHANNELS 3 Zrotation Xrotation Yrotation
                  End Site
                  {
                    OFFSET 1.78271 -1.18214 1.43049
                  }
                }
              }
              JOINT lIndex1
              {
                OFFSET 7.75947 0.938293 5.60832
                CHANNELS 3 Zrotation Xrotation Yrotation
                JOINT lIndex2
                {
                  OFFSET 2.54057 -0.884171 1.56538
                  CHANNELS 3 Zrotation Xrotation Yrotation
                  End Site
                  {
                    OFFSET 1.62519 -0.234802 1.16502
                  }
                }
              }
              JOINT lMid1
              {
                OFFSET 8.24714 1.18213 3.41376
                CHANNELS 3 Zrotation Xrotation Yrotation
                JOINT lMid2
                {
                  OFFSET 3.10165 -0.590103 1.0647
                  CHANNELS 3 Zrotation Xrotation Yrotation
                  End Site
                  {
                    OFFSET 2.48547 -0.328903 0.83742
                  }
                }
              }
              JOINT lRing1
              {
                OFFSET 8.82822 0.546677 1.51678
                CHANNELS 3 Zrotation Xrotation Yrotation
                JOINT lRing2
                {
                  OFFSET 2.60934 -0.819778 -0.0198488
                  CHANNELS 3 Zrotation Xrotation Yrotation
                  End Site
                  {
                    OFFSET 2.33842 -0.294052 0.168128
                  }
                }
              }
              JOINT lPinky1
              {
                OFFSET 8.27202 -0.0477905 -0.4584
                CHANNELS 3 Zrotation Xrotation Yrotation
                JOINT lPinky2
                {
                  OFFSET 1.82734 -0.647385 -0.700984
                  CHANNELS 3 Zrotation Xrotation Yrotation
                  End Site
                  {
                    OFFSET 1.69225 -0.51767 -0.607171
                  }
                }
              }
            }
          }
        }
      }
    }
  }
  JOINT rButtock
  {
    OFFSET -8.77824 4.35084 1.2192
    CHANNELS 3 Zrotation Xrotation Yrotation
    JOINT rThigh
    {
      OFFSET 0 -1.70687 -2.19456
      CHANNELS 3 Zrotation Xrotation Yrotation
      JOINT rShin
      {
        OFFSET 0 -36.8199 0.73152
        CHANNELS 3 Zrotation Xrotation Yrotation
        JOINT rFoot
        {
          OFFSET 0.73152 -45.1104 -5.12064
          CHANNELS 3 Zrotation Xrotation Yrotation
          End Site
          {
            OFFSET -1.1221 -3.69964 12.103
          }
        }
      }
    }
  }
  JOINT lButtock
  {
    OFFSET 8.77824 4.35084 1.2192
    CHANNELS 3 Zrotation Xrotation Yrotation
    JOINT lThigh
    {
      OFFSET 0 -1.70687 -2.19456
      CHANNELS 3 Zrotation Xrotation Yrotation
      JOINT lShin
      {
        OFFSET 0 -36.8199 0.73152
        CHANNELS 3 Zrotation Xrotation Yrotation
        JOINT lFoot
        {
          OFFSET -0.73152 -45.1104 -5.12064
          CHANNELS 3 Zrotation Xrotation Yrotation
          End Site
          {
            OFFSET 1.1221 -3.69964 12.103
          }
        }
      }
    }
  }
}
MOTION
Frames:	6
Frame Time:	0.00833333
10.3009 85.3843 -18.8835 0.87481 -3.81939 -12.0465 -3.63509 7.5328 2.38122 -0.0681015 -2.24025 0.609351 -5.78553 12.8238 -3.57204 9.02592 -22.8438 -4.92206 -0 0 0 -0 0 0 6.24667e-014 -1.76928e-014 -1.44712e-013 20.1625 14.5971 53.5846 -20.8754 -52.6415 112.044 -0.206063 -12.8241 -1.83334 -6.86734e-010 3.59644e-010 -2.14878e-010 -1.1842e-009 6.22073e-010 -3.80978e-010 -6.86733e-010 3.59654e-010 -2.14893e-010 7.73091 5.47488 0.417314 -6.86738e-010 3.59651e-010 -2.1488e-010 2.90554 0.965183 0.102902 -6.86727e-010 3.59651e-010 -2.1488e-010 10.2786 0.731801 0.0259123 -6.86732e-010 3.5965e-010 -2.14875e-010 2.22167 -0.733487 -0.20892 6.23338e-014 -1.76918e-014 -1.44877e-013 -73.7729 25.1618 10.018 28.4016 -34.3223 -74.2286 0.164693 11.4886 -1.63684 3.95274e-011 6.04012e-009 5.14065e-010 7.2724e-011 1.05155e-008 8.85681e-010 3.95205e-011 6.04013e-009 5.14071e-010 -7.73091 5.47488 -0.417314 3.9528e-011 6.04012e-009 5.14063e-010 -2.90554 0.965183 -0.102902 3.95168e-011 6.04012e-009 5.14064e-010 -10.2786 0.731801 -0.0259123 3.95292e-011 6.04013e-009 5.14056e-010 -2.22167 -0.733487 0.20892 -2.03217e-016 0 -3.88251e-019 -4.57704 1.0307 20.4371 -0.023399 11.605 0.226703 -4.13007 -7.3835 -20.2542 2.03217e-016 0 3.88251e-019 20.7996 -3.11665 0.0329824 0.00418344 -0.0917509 0.0368518 0.222859 3.2076 -0.0833039 
10.3176 85.3817 -18.8945 0.911729 -3.79263 -12.0093 -3.65241 7.46846 2.29977 -0.0160764 -2.26336 0.587491 -5.82375 13.0586 -3.53248 9.02639 -22.6868 -4.87347 -0 0 0 -0 0 0 6.73182e-014 2.31447e-014 -2.95207e-013 20.1757 15.0052 53.5555 -20.8267 -52.6827 112.168 -0.213078 -13.0367 -1.8648 -1.09839e-009 6.10778e-010 -5.406e-010 -1.89277e-009 1.05684e-009 -9.49925e-010 -1.09839e-009 6.10785e-010 -5.40613e-010 7.73091 5.47488 0.417314 -1.09839e-009 6.10785e-010 -5.40599e-010 2.90554 0.965183 0.102902 -1.09839e-009 6.10785e-010 -5.40599e-010 10.2786 0.731801 0.0259123 -1.09839e-009 6.10784e-010 -5.40588e-010 2.22167 -0.733487 -0.20892 6.70884e-014 2.31457e-014 -2.95392e-013 -73.9091 25.1788 10.1338 28.404 -34.3751 -74.3153 0.165396 11.5133 -1.64045 4.4373e-010 1.7336e-008 9.2881e-010 7.73638e-010 3.00598e-008 1.59815e-009 4.43722e-010 1.7336e-008 9.28815e-010 -7.73091 5.47488 -0.417314 4.43731e-010 1.7336e-008 9.28806e-010 -2.90554 0.965183 -0.102902 4.43716e-010 1.7336e-008 9.28808e-010 -10.2786 0.731801 -0.0259123 4.43733e-010 1.7336e-008 9.288e-010 -2.22167 -0.733487 0.20892 -2.03217e-016 0 -3.88251e-019 -4.6062 0.990833 20.4199 -0.0222996 11.6151 0.224615 -4.12532 -7.36701 -20.2665 2.03217e-016 0 3.88251e-019 20.7997 -3.11668 0.0329805 0.00418206 -0.0912206 0.0368398 0.22257 3.2071 -0.0832541 
10.3214 85.3809 -18.8989 0.944292 -3.75784 -11.9888 -3.66886 7.40506 2.24128 0.0232845 -2.28005 0.571569 -5.8296 13.2446 -3.50247 9.00199 -22.4808 -4.84898 -0 0 0 -0 0 0 6.55168e-014 5.4863e-014 -3.68845e-013 20.2221 15.4064 53.5135 -20.785 -52.7176 112.273 -0.219838 -13.2369 -1.89449 -1.2143e-009 6.88644e-010 -7.4335e-010 -2.09109e-009 1.19208e-009 -1.30247e-009 -1.2143e-009 6.88649e-010 -7.43362e-010 7.73091 5.47488 0.417314 -1.2143e-009 6.8865e-010 -7.43346e-010 2.90554 0.965183 0.102902 -1.21429e-009 6.8865e-010 -7.43347e-010 10.2786 0.731801 0.0259123 -1.21429e-009 6.8865e-010 -7.43334e-010 2.22167 -0.733487 -0.20892 6.52381e-014 5.48642e-014 -3.69044e-013 -74.0197 25.221 10.2167 28.4066 -34.4324 -74.4091 0.165975 11.5334 -1.64339 7.29286e-010 2.36555e-008 1.01644e-009 1.26725e-009 4.09635e-008 1.74697e-009 7.29278e-010 2.36555e-008 1.01644e-009 -7.73091 5.47488 -0.417314 7.29287e-010 2.36555e-008 1.01644e-009 -2.90554 0.965183 -0.102902 7.29271e-010 2.36555e-008 1.01644e-009 -10.2786 0.731801 -0.0259123 7.29291e-010 2.36555e-008 1.01643e-009 -2.22167 -0.733487 0.20892 -2.03217e-016 0 -3.88251e-019 -4.62817 0.936154 20.4145 -0.0213462 11.6316 0.223394 -4.12364 -7.35809 -20.278 2.03217e-016 0 3.88251e-019 20.7996 -3.1171 0.0329891 0.00418187 -0.0898181 0.0368383 0.222235 3.20612 -0.0831892 
10.3206 85.3786 -18.9069 0.972898 -3.7072 -11.9939 -3.68579 7.33805 2.21552 0.0446908 -2.28836 0.563849 -5.7824 13.3613 -3.48492 8.93333 -22.2119 -4.85789 -0 0 0 -0 0 0 5.25457e-014 8.12019e-014 -3.13682e-013 20.316 15.8013 53.4538 -20.7551 -52.7426 112.348 -0.225993 -13.4152 -1.92099 -7.91978e-010 4.4849e-010 -7.91344e-010 -1.36009e-009 7.77933e-010 -1.38082e-009 -7.91979e-010 4.48494e-010 -7.91355e-010 7.73091 5.47488 0.417314 -7.91981e-010 4.48495e-010 -7.9134e-010 2.90554 0.965183 0.102902 -7.91975e-010 4.48495e-010 -7.91342e-010 10.2786 0.731801 0.0259123 -7.91975e-010 4.48495e-010 -7.91329e-010 2.22167 -0.733487 -0.20892 5.22879e-014 8.12033e-014 -3.13884e-013 -74.0961 25.3006 10.2561 28.4095 -34.5002 -74.5201 0.16636 11.5464 -1.6453 9.04774e-010 2.23342e-008 4.49315e-010 1.5659e-009 3.85648e-008 7.66336e-010 9.04767e-010 2.23342e-008 4.49324e-010 -7.73091 5.47488 -0.417314 9.04775e-010 2.23342e-008 4.49314e-010 -2.90554 0.965183 -0.102902 9.0476e-010 2.23342e-008 4.49315e-010 -10.2786 0.731801 -0.0259123 9.04779e-010 2.23342e-008 4.49308e-010 -2.22167 -0.733487 0.20892 -2.03217e-016 0 -3.88251e-019 -4.6407 0.852946 20.4284 -0.0204999 11.6588 0.223428 -4.12644 -7.35971 -20.2902 2.03217e-016 0 3.88251e-019 20.7992 -3.11808 0.0330134 0.00418332 -0.0870346 0.0368515 0.221809 3.20433 -0.0830969 
10.3293 85.3727 -18.9239 1.00142 -3.64377 -12.0144 -3.70542 7.26193 2.20793 0.0568519 -2.29267 0.560608 -5.70188 13.4397 -3.47533 8.83428 -21.8983 -4.88923 -0 0 0 -0 0 0 3.21614e-014 1.07044e-013 -1.85764e-013 20.4445 16.2004 53.3842 -20.7314 -52.7623 112.408 -0.231538 -13.5744 -1.94466 -3.51624e-011 1.41455e-011 -7.59859e-010 -5.13435e-011 2.83715e-011 -1.31762e-009 -3.51612e-011 1.41489e-011 -7.59869e-010 7.73091 5.47488 0.417314 -3.51649e-011 1.41497e-011 -7.59855e-010 2.90554 0.965183 0.102902 -3.51579e-011 1.41488e-011 -7.5986e-010 10.2786 0.731801 0.0259123 -3.516e-011 1.41485e-011 -7.59849e-010 2.22167 -0.733487 -0.20892 3.19674e-014 1.07046e-013 -1.85966e-013 -74.1573 25.4042 10.2764 28.4126 -34.5755 -74.6436 0.166402 11.5479 -1.64551 1.03852e-009 1.67238e-008 -5.18261e-010 1.78945e-009 2.86906e-008 -9.05281e-010 1.03851e-009 1.67238e-008 -5.1825e-010 -7.73091 5.47488 -0.417314 1.03852e-009 1.67238e-008 -5.18258e-010 -2.90554 0.965183 -0.102902 1.03851e-009 1.67238e-008 -5.1826e-010 -10.2786 0.731801 -0.0259123 1.03852e-009 1.67238e-008 -5.18264e-010 -2.22167 -0.733487 0.20892 -2.03217e-016 0 -3.88251e-019 -4.64891 0.74794 20.4545 -0.0197083 11.694 0.22414 -4.13182 -7.36728 -20.3031 2.03217e-016 0 3.88251e-019 20.7985 -3.11945 0.0330483 0.00418577 -0.0832735 0.0368735 0.221298 3.20197 -0.0829822 
10.3362 85.3659 -18.9435 1.02618 -3.5829 -12.0377 -3.72268 7.19107 2.20739 0.0651694 -2.29412 0.559543 -5.61929 13.5024 -3.47056 8.73915 -21.5576 -4.93013 -0 0 0 -0 0 0 1.17096e-014 1.20313e-013 -5.99336e-014 20.586 16.5953 53.3083 -20.7078 -52.7821 112.467 -0.237117 -13.7337 -1.96838 6.63378e-010 -3.81571e-010 -6.63953e-010 1.15594e-009 -6.54916e-010 -1.14344e-009 6.63381e-010 -3.81568e-010 -6.63961e-010 7.73091 5.47488 0.417314 6.63376e-010 -3.81568e-010 -6.63949e-010 2.90554 0.965183 0.102902 6.63384e-010 -3.81569e-010 -6.63956e-010 10.2786 0.731801 0.0259123 6.63379e-010 -3.8157e-010 -6.63947e-010 2.22167 -0.733487 -0.20892 1.15932e-014 1.20315e-013 -6.01335e-014 -74.208 25.5147 10.283 28.4152 -34.6465 -74.7608 0.166368 11.5467 -1.64535 1.05998e-009 1.03056e-008 -1.33983e-009 1.82025e-009 1.74595e-008 -2.32371e-009 1.05997e-009 1.03056e-008 -1.33982e-009 -7.73091 5.47488 -0.417314 1.05998e-009 1.03056e-008 -1.33983e-009 -2.90554 0.965183 -0.102902 1.05997e-009 1.03056e-008 -1.33983e-009 -10.2786 0.731801 -0.0259123 1.05998e-009 1.03056e-008 -1.33983e-009 -2.22167 -0.733487 0.20892 -2.03217e-016 0 -3.88251e-019 -4.65391 0.647012 20.4813 -0.0191002 11.7297 0.22509 -4.13804 -7.37756 -20.3133 2.03217e-016 0 3.88251e-019 20.7978 -3.12094 0.0330858 0.00418865 -0.0793768 0.0368995 0.2208 3.19958 -0.082869 
